# Blender v2.78 (sub 0) OBJ File: ''
# www.blender.org
mtllib square_edge.mtl
o Cube
v 0.900900 -0.051000 -0.900900
v 0.900900 -0.051000 0.900900
v -0.900900 -0.051000 0.900900
v -0.900900 -0.051000 -0.900900
v 0.900900 0.051000 -0.900900
v 0.900899 0.051000 0.900901
v -0.900900 0.051000 0.900900
v -0.900900 0.051000 -0.900900
v 1.001000 -0.051000 -1.001000
v 1.001000 -0.051000 1.001000
v -1.001000 -0.051000 -1.001000
v -1.001000 -0.051000 1.001000
v 1.001001 0.051000 -1.000999
v 1.000999 0.051000 1.001001
v -1.001000 0.051000 -1.001000
v -1.001000 0.051000 1.001000
vn -0.0000 0.0000 1.0000
vn 1.0000 0.0000 0.0000
vn -1.0000 -0.0000 -0.0000
vn 0.0000 0.0000 -1.0000
vn 0.0000 -1.0000 0.0000
vn 0.0000 1.0000 0.0000
usemtl Material
s off
f 14//1 16//1 12//1
f 13//2 14//2 10//2
f 13//2 10//2 9//2
f 14//1 12//1 10//1
f 12//3 15//3 11//3
f 9//4 15//4 13//4
f 2//5 9//5 10//5
f 1//5 11//5 9//5
f 2//5 12//5 3//5
f 4//5 12//5 11//5
f 6//6 13//6 5//6
f 5//6 15//6 8//6
f 6//6 16//6 14//6
f 8//6 16//6 7//6
f 12//3 16//3 15//3
f 9//4 11//4 15//4
f 2//5 1//5 9//5
f 1//5 4//5 11//5
f 2//5 10//5 12//5
f 4//5 3//5 12//5
f 6//6 14//6 13//6
f 5//6 13//6 15//6
f 6//6 7//6 16//6
f 8//6 15//6 16//6
