# Blender v2.78 (sub 0) OBJ File: ''
# www.blender.org
mtllib switchxobj.mtl
o Cube
v 0.800000 -0.040000 -0.800000
v 0.800000 -0.040000 0.800000
v -0.800000 -0.040000 0.800000
v -0.800000 -0.040000 -0.800000
v 0.800000 0.040000 -0.800000
v 0.799999 0.040000 0.800000
v -0.800000 0.040000 0.800000
v -0.800000 0.040000 -0.800000
v 0.080000 -0.040000 0.000000
v 0.000000 -0.040000 -0.080000
v 0.800000 0.000000 -0.800000
v -0.000000 -0.040000 0.080000
v 0.800000 0.000000 0.800000
v -0.080000 -0.040000 -0.000000
v -0.800000 0.000000 0.800000
v -0.800000 0.000000 -0.800000
v 0.080000 0.040000 0.000000
v 0.000000 0.040000 -0.080000
v -0.000000 0.040000 0.080000
v -0.080000 0.040000 -0.000000
v 0.000000 0.000000 -0.080000
v -0.080000 0.000000 -0.000000
v -0.000000 0.000000 0.080000
v 0.080000 0.000000 0.000000
v -0.000000 0.040000 0.000000
v 0.000000 -0.040000 -0.000000
vn 0.0000 -1.0000 0.0000
vn 0.0000 1.0000 -0.0000
vn 0.7433 0.0000 -0.6690
vn 0.6690 0.0000 0.7433
vn -0.7433 -0.0000 0.6690
vn 0.6690 0.0000 -0.7433
vn -0.6690 0.0000 -0.7433
vn -0.7433 -0.0000 -0.6690
vn -0.6690 -0.0000 0.7433
vn 0.7433 -0.0000 0.6690
usemtl Material
s off
f 12//1 14//1 26//1
f 20//2 19//2 25//2
f 17//3 13//3 24//3
f 19//4 15//4 23//4
f 20//5 16//5 22//5
f 10//6 16//6 21//6
f 21//6 8//6 18//6
f 11//7 18//7 5//7
f 1//7 21//7 11//7
f 22//5 4//5 14//5
f 15//8 14//8 3//8
f 7//8 22//8 15//8
f 23//4 3//4 12//4
f 13//9 12//9 2//9
f 6//9 23//9 13//9
f 24//3 2//3 9//3
f 11//10 9//10 1//10
f 5//10 24//10 11//10
f 17//2 19//2 6//2
f 18//2 17//2 5//2
f 18//2 20//2 25//2
f 10//1 14//1 4//1
f 9//1 10//1 1//1
f 9//1 12//1 26//1
f 12//1 3//1 14//1
f 20//2 7//2 19//2
f 17//3 6//3 13//3
f 19//4 7//4 15//4
f 20//5 8//5 16//5
f 10//6 4//6 16//6
f 21//6 16//6 8//6
f 11//7 21//7 18//7
f 1//7 10//7 21//7
f 22//5 16//5 4//5
f 15//8 22//8 14//8
f 7//8 20//8 22//8
f 23//4 15//4 3//4
f 13//9 23//9 12//9
f 6//9 19//9 23//9
f 24//3 13//3 2//3
f 11//10 24//10 9//10
f 5//10 17//10 24//10
f 17//2 25//2 19//2
f 18//2 25//2 17//2
f 18//2 8//2 20//2
f 10//1 26//1 14//1
f 9//1 26//1 10//1
f 9//1 2//1 12//1
