# Blender v2.78 (sub 0) OBJ File: 'switcho.blend'
# www.blender.org
mtllib switcho.mtl
o Cylinder_Cylinder.001
v -0.000000 -0.100000 -0.639226
v -0.000000 0.100000 -0.639226
v 0.124707 -0.100000 -0.626943
v 0.124707 0.100000 -0.626943
v 0.244621 -0.100000 -0.590568
v 0.244621 0.100000 -0.590568
v 0.355135 -0.100000 -0.531497
v 0.355135 0.100000 -0.531497
v 0.452001 -0.100000 -0.452001
v 0.452001 0.100000 -0.452001
v 0.531497 -0.100000 -0.355135
v 0.531497 0.100000 -0.355135
v 0.590568 -0.100000 -0.244621
v 0.590568 0.100000 -0.244621
v 0.626943 -0.100000 -0.124707
v 0.626943 0.100000 -0.124707
v 0.639226 -0.100000 -0.000000
v 0.639226 0.100000 -0.000000
v 0.626943 -0.100000 0.124707
v 0.626943 0.100000 0.124707
v 0.590568 -0.100000 0.244621
v 0.590568 0.100000 0.244621
v 0.531497 -0.100000 0.355135
v 0.531497 0.100000 0.355135
v 0.452001 -0.100000 0.452001
v 0.452001 0.100000 0.452001
v 0.355135 -0.100000 0.531497
v 0.355135 0.100000 0.531497
v 0.244621 -0.100000 0.590568
v 0.244621 0.100000 0.590568
v 0.124707 -0.100000 0.626943
v 0.124707 0.100000 0.626943
v -0.000000 -0.100000 0.639226
v -0.000000 0.100000 0.639226
v -0.124707 -0.100000 0.626943
v -0.124707 0.100000 0.626943
v -0.244621 -0.100000 0.590567
v -0.244621 0.100000 0.590567
v -0.355135 -0.100000 0.531497
v -0.355135 0.100000 0.531497
v -0.452001 -0.100000 0.452001
v -0.452001 0.100000 0.452001
v -0.531497 -0.100000 0.355134
v -0.531497 0.100000 0.355134
v -0.590568 -0.100000 0.244621
v -0.590568 0.100000 0.244621
v -0.626943 -0.100000 0.124706
v -0.626943 0.100000 0.124706
v -0.639226 -0.100000 -0.000001
v -0.639226 0.100000 -0.000001
v -0.626943 -0.100000 -0.124707
v -0.626943 0.100000 -0.124707
v -0.590567 -0.100000 -0.244622
v -0.590567 0.100000 -0.244622
v -0.531496 -0.100000 -0.355136
v -0.531496 0.100000 -0.355136
v -0.452000 -0.100000 -0.452002
v -0.452000 0.100000 -0.452002
v -0.355134 -0.100000 -0.531497
v -0.355134 0.100000 -0.531497
v -0.244620 -0.100000 -0.590568
v -0.244620 0.100000 -0.590568
v -0.124706 -0.100000 -0.626944
v -0.124706 0.100000 -0.626944
v 0.000000 -0.100000 -0.800000
v 0.156072 -0.100000 -0.784628
v 0.156072 0.100000 -0.784628
v 0.000000 0.100000 -0.800000
v 0.306147 -0.100000 -0.739104
v 0.306147 0.100000 -0.739104
v 0.444456 -0.100000 -0.665176
v 0.444456 0.100000 -0.665176
v 0.565685 -0.100000 -0.565686
v 0.565685 0.100000 -0.565686
v 0.665176 -0.100000 -0.444456
v 0.665176 0.100000 -0.444456
v 0.739104 -0.100000 -0.306147
v 0.739104 0.100000 -0.306147
v 0.784628 -0.100000 -0.156072
v 0.784628 0.100000 -0.156072
v 0.800000 -0.100000 -0.000000
v 0.800000 0.100000 -0.000000
v 0.784628 -0.100000 0.156072
v 0.784628 0.100000 0.156072
v 0.739104 -0.100000 0.306147
v 0.739104 0.100000 0.306147
v 0.665176 -0.100000 0.444456
v 0.665176 0.100000 0.444456
v 0.565685 -0.100000 0.565685
v 0.565685 0.100000 0.565685
v 0.444456 -0.100000 0.665176
v 0.444456 0.100000 0.665176
v 0.306147 -0.100000 0.739104
v 0.306147 0.100000 0.739104
v 0.156072 -0.100000 0.784628
v 0.156072 0.100000 0.784628
v -0.000000 -0.100000 0.800000
v -0.000000 0.100000 0.800000
v -0.156073 -0.100000 0.784628
v -0.156073 0.100000 0.784628
v -0.306147 -0.100000 0.739103
v -0.306147 0.100000 0.739103
v -0.444457 -0.100000 0.665175
v -0.444457 0.100000 0.665175
v -0.565686 -0.100000 0.565685
v -0.565686 0.100000 0.565685
v -0.665176 -0.100000 0.444456
v -0.665176 0.100000 0.444456
v -0.739104 -0.100000 0.306146
v -0.739104 0.100000 0.306146
v -0.784628 -0.100000 0.156072
v -0.784628 0.100000 0.156072
v -0.800000 -0.100000 -0.000001
v -0.800000 0.100000 -0.000001
v -0.784628 -0.100000 -0.156073
v -0.784628 0.100000 -0.156073
v -0.739103 -0.100000 -0.306148
v -0.739103 0.100000 -0.306148
v -0.665175 -0.100000 -0.444457
v -0.665175 0.100000 -0.444457
v -0.565685 -0.100000 -0.565686
v -0.565685 0.100000 -0.565686
v -0.444455 -0.100000 -0.665176
v -0.444455 0.100000 -0.665176
v -0.306146 -0.100000 -0.739104
v -0.306146 0.100000 -0.739104
v -0.156071 -0.100000 -0.784629
v -0.156071 0.100000 -0.784629
vn 0.0980 0.0000 -0.9952
vn 0.2903 0.0000 -0.9569
vn 0.4714 0.0000 -0.8819
vn 0.6344 0.0000 -0.7730
vn 0.7730 0.0000 -0.6344
vn 0.8819 0.0000 -0.4714
vn 0.9569 0.0000 -0.2903
vn 0.9952 0.0000 -0.0980
vn 0.9952 0.0000 0.0980
vn 0.9569 0.0000 0.2903
vn 0.8819 0.0000 0.4714
vn 0.7730 0.0000 0.6344
vn 0.6344 0.0000 0.7730
vn 0.4714 0.0000 0.8819
vn 0.2903 0.0000 0.9569
vn 0.0980 0.0000 0.9952
vn -0.0980 0.0000 0.9952
vn -0.2903 0.0000 0.9569
vn -0.4714 0.0000 0.8819
vn -0.6344 0.0000 0.7730
vn -0.7730 0.0000 0.6344
vn -0.8819 0.0000 0.4714
vn -0.9569 0.0000 0.2903
vn -0.9952 0.0000 0.0980
vn -0.9952 0.0000 -0.0980
vn -0.9569 0.0000 -0.2903
vn -0.8819 0.0000 -0.4714
vn -0.7730 0.0000 -0.6344
vn -0.6344 0.0000 -0.7730
vn -0.4714 0.0000 -0.8819
vn -0.2903 0.0000 -0.9569
vn -0.0980 0.0000 -0.9952
vn 0.0000 -1.0000 0.0000
vn 0.0000 1.0000 -0.0000
usemtl None
s off
f 68//1 66//1 65//1
f 67//2 69//2 66//2
f 70//3 71//3 69//3
f 72//4 73//4 71//4
f 74//5 75//5 73//5
f 76//6 77//6 75//6
f 78//7 79//7 77//7
f 80//8 81//8 79//8
f 82//9 83//9 81//9
f 84//10 85//10 83//10
f 86//11 87//11 85//11
f 88//12 89//12 87//12
f 90//13 91//13 89//13
f 92//14 93//14 91//14
f 94//15 95//15 93//15
f 96//16 97//16 95//16
f 98//17 99//17 97//17
f 100//18 101//18 99//18
f 102//19 103//19 101//19
f 104//20 105//20 103//20
f 106//21 107//21 105//21
f 108//22 109//22 107//22
f 110//23 111//23 109//23
f 112//24 113//24 111//24
f 114//25 115//25 113//25
f 116//26 117//26 115//26
f 118//27 119//27 117//27
f 120//28 121//28 119//28
f 122//29 123//29 121//29
f 124//30 125//30 123//30
f 126//31 127//31 125//31
f 128//32 65//32 127//32
f 1//33 66//33 3//33
f 4//34 68//34 2//34
f 5//33 66//33 69//33
f 6//34 67//34 4//34
f 7//33 69//33 71//33
f 8//34 70//34 6//34
f 7//33 73//33 9//33
f 8//34 74//34 72//34
f 11//33 73//33 75//33
f 12//34 74//34 10//34
f 11//33 77//33 13//33
f 12//34 78//34 76//34
f 13//33 79//33 15//33
f 16//34 78//34 14//34
f 17//33 79//33 81//33
f 18//34 80//34 16//34
f 19//33 81//33 83//33
f 20//34 82//34 18//34
f 19//33 85//33 21//33
f 20//34 86//34 84//34
f 21//33 87//33 23//33
f 24//34 86//34 22//34
f 23//33 89//33 25//33
f 26//34 88//34 24//34
f 25//33 91//33 27//33
f 28//34 90//34 26//34
f 27//33 93//33 29//33
f 28//34 94//34 92//34
f 29//33 95//33 31//33
f 30//34 96//34 94//34
f 31//33 97//33 33//33
f 34//34 96//34 32//34
f 33//33 99//33 35//33
f 36//34 98//34 34//34
f 35//33 101//33 37//33
f 38//34 100//34 36//34
f 37//33 103//33 39//33
f 38//34 104//34 102//34
f 41//33 103//33 105//33
f 42//34 104//34 40//34
f 43//33 105//33 107//33
f 44//34 106//34 42//34
f 43//33 109//33 45//33
f 46//34 108//34 44//34
f 47//33 109//33 111//33
f 48//34 110//34 46//34
f 49//33 111//33 113//33
f 50//34 112//34 48//34
f 51//33 113//33 115//33
f 52//34 114//34 50//34
f 51//33 117//33 53//33
f 54//34 116//34 52//34
f 53//33 119//33 55//33
f 54//34 120//34 118//34
f 55//33 121//33 57//33
f 58//34 120//34 56//34
f 59//33 121//33 123//33
f 60//34 122//34 58//34
f 59//33 125//33 61//33
f 60//34 126//34 124//34
f 61//33 127//33 63//33
f 62//34 128//34 126//34
f 1//33 127//33 65//33
f 2//34 128//34 64//34
f 68//1 67//1 66//1
f 67//2 70//2 69//2
f 70//3 72//3 71//3
f 72//4 74//4 73//4
f 74//5 76//5 75//5
f 76//6 78//6 77//6
f 78//7 80//7 79//7
f 80//8 82//8 81//8
f 82//9 84//9 83//9
f 84//10 86//10 85//10
f 86//11 88//11 87//11
f 88//12 90//12 89//12
f 90//13 92//13 91//13
f 92//14 94//14 93//14
f 94//15 96//15 95//15
f 96//16 98//16 97//16
f 98//17 100//17 99//17
f 100//18 102//18 101//18
f 102//19 104//19 103//19
f 104//20 106//20 105//20
f 106//21 108//21 107//21
f 108//22 110//22 109//22
f 110//23 112//23 111//23
f 112//24 114//24 113//24
f 114//25 116//25 115//25
f 116//26 118//26 117//26
f 118//27 120//27 119//27
f 120//28 122//28 121//28
f 122//29 124//29 123//29
f 124//30 126//30 125//30
f 126//31 128//31 127//31
f 128//32 68//32 65//32
f 1//33 65//33 66//33
f 4//34 67//34 68//34
f 5//33 3//33 66//33
f 6//34 70//34 67//34
f 7//33 5//33 69//33
f 8//34 72//34 70//34
f 7//33 71//33 73//33
f 8//34 10//34 74//34
f 11//33 9//33 73//33
f 12//34 76//34 74//34
f 11//33 75//33 77//33
f 12//34 14//34 78//34
f 13//33 77//33 79//33
f 16//34 80//34 78//34
f 17//33 15//33 79//33
f 18//34 82//34 80//34
f 19//33 17//33 81//33
f 20//34 84//34 82//34
f 19//33 83//33 85//33
f 20//34 22//34 86//34
f 21//33 85//33 87//33
f 24//34 88//34 86//34
f 23//33 87//33 89//33
f 26//34 90//34 88//34
f 25//33 89//33 91//33
f 28//34 92//34 90//34
f 27//33 91//33 93//33
f 28//34 30//34 94//34
f 29//33 93//33 95//33
f 30//34 32//34 96//34
f 31//33 95//33 97//33
f 34//34 98//34 96//34
f 33//33 97//33 99//33
f 36//34 100//34 98//34
f 35//33 99//33 101//33
f 38//34 102//34 100//34
f 37//33 101//33 103//33
f 38//34 40//34 104//34
f 41//33 39//33 103//33
f 42//34 106//34 104//34
f 43//33 41//33 105//33
f 44//34 108//34 106//34
f 43//33 107//33 109//33
f 46//34 110//34 108//34
f 47//33 45//33 109//33
f 48//34 112//34 110//34
f 49//33 47//33 111//33
f 50//34 114//34 112//34
f 51//33 49//33 113//33
f 52//34 116//34 114//34
f 51//33 115//33 117//33
f 54//34 118//34 116//34
f 53//33 117//33 119//33
f 54//34 56//34 120//34
f 55//33 119//33 121//33
f 58//34 122//34 120//34
f 59//33 57//33 121//33
f 60//34 124//34 122//34
f 59//33 123//33 125//33
f 60//34 62//34 126//34
f 61//33 125//33 127//33
f 62//34 64//34 128//34
f 1//33 63//33 127//33
f 2//34 68//34 128//34
